<svg xmlns="http://www.w3.org/2000/svg" viewBox="0 0 409 253.82"><defs><style>.cls-1{fill:#1d1d1b;}.cls-2{fill:#42a9e0;}</style></defs><g id="Layer_2" data-name="Layer 2"><g id="Layer_1-2" data-name="Layer 1"><path class="cls-1" d="M194.36,146a74.61,74.61,0,0,0-40-40,73.58,73.58,0,0,0-29.25-5.86H75.06A24.72,24.72,0,0,1,57.33,93a24.63,24.63,0,0,1-5.31-8,25.38,25.38,0,0,1-1.93-9.86A24.73,24.73,0,0,1,52,65.28a24.7,24.7,0,0,1,23-15.17H189.92V0H75.06A72.3,72.3,0,0,0,45.9,5.93a76.33,76.33,0,0,0-40,40A72.22,72.22,0,0,0,0,75.08a72.71,72.71,0,0,0,5.93,29.23,76.08,76.08,0,0,0,40,40.07,72.3,72.3,0,0,0,29.16,5.93h50.09a25.13,25.13,0,0,1,23,34.74,24.83,24.83,0,0,1-13.26,13.26,23.36,23.36,0,0,1-4.3,1.35c9.61-1.51,30.45-7.09,51.08-27.71A133.41,133.41,0,0,1,198,156.61,75,75,0,0,0,194.36,146Z"/><path class="cls-1" d="M397.47,63.73,379,85.89a130.5,130.5,0,0,0-14.22-11.7,108.65,108.65,0,0,0-16-9.42,93.67,93.67,0,0,0-17.28-6.29,73.12,73.12,0,0,0-18-2.26,95.37,95.37,0,0,0-37.1,7.24,92.69,92.69,0,0,0-30.36,20.33,95.31,95.31,0,0,0-20.52,31.34,99.37,99.37,0,0,0-6.82,27.23c14.87-8.46,33.46-15.44,54.36-15.44h0a42.75,42.75,0,0,1,7-9.44,42.08,42.08,0,0,1,15-9.77,50.76,50.76,0,0,1,18.42-3.31,40.9,40.9,0,0,1,18.41,4.26A50.67,50.67,0,0,1,347,120a54.28,54.28,0,0,1,10.21,16.24,49.64,49.64,0,0,1,3.28,12.09A180.71,180.71,0,0,1,409,185V63.73Z"/><path class="cls-2" d="M200.22,175.28a72.7,72.7,0,0,1-5.86,29.14,75.12,75.12,0,0,1-16.06,23.83,76.39,76.39,0,0,1-23.9,16.15,72.94,72.94,0,0,1-29.25,5.93H14V200.22h111.2s.34,0,1,0a23.56,23.56,0,0,0,4.48-.53h0c9.27-1.45,29-6.69,48.87-25.56,1.25-1.19,2.43-2.43,3.59-3.7A145.28,145.28,0,0,1,198,156.61,76.5,76.5,0,0,1,200.22,175.28Z"/><path class="cls-2" d="M409,185v65.33H397.47L379,224.68a150.1,150.1,0,0,1-14.4,11.42,106,106,0,0,1-16,9.26,96.8,96.8,0,0,1-17.19,6.19,71.65,71.65,0,0,1-17.9,2.27,103.33,103.33,0,0,1-37.1-6.62,88.07,88.07,0,0,1-30.36-19.3,90.29,90.29,0,0,1-20.52-31Q218,178.59,218,155.2a117.19,117.19,0,0,1,.69-12.84c14.87-8.46,33.46-15.44,54.36-15.44a50.18,50.18,0,0,0-3,6.53,60.36,60.36,0,0,0-3.67,21.75A60.16,60.16,0,0,0,270,176.92a45.57,45.57,0,0,0,10,16,41.71,41.71,0,0,0,15,9.78A51,51,0,0,0,313.51,206a40.92,40.92,0,0,0,18.41-4.29A50.34,50.34,0,0,0,347,190.36a54,54,0,0,0,10.21-16.24A49.46,49.46,0,0,0,361,155.2a48.7,48.7,0,0,0-.48-6.86A180.71,180.71,0,0,1,409,185Z"/></g></g></svg>